# xmcd
#
# Track frame offsets:
#       150
#       23750
#       46892
#       69162
#       93852
#       112645
#       132447
#       152712
#       167987
#
# Disc length: 2477 seconds
#
# Revision: 6
# Processed by: cddbd v1.5.2PL0 Copyright (c) Steve Scherf et al.
# Submitted via: FreeDbEdit v0.1
#
DISCID=6409ab09
DTITLE=The Temptations - Together Again
DYEAR=1900
DGENRE=Blues
TTITLE0=Look What You Started
TTITLE1=I Wonder Who She's Seeing Now
TTITLE2=10 X 10
TTITLE3=Do You Wanna Go With Me
TTITLE4=Little Things
TTITLE5=I Got Your Number
TTITLE6=Every Time I Close My Eyes
TTITLE7=Lucky
TTITLE8=Put Your Foot Down
EXTD=
EXTT0=
EXTT1=
EXTT2=
EXTT3=
EXTT4=
EXTT5=
EXTT6=
EXTT7=
EXTT8=
PLAYORDER=
